<?xml version="1.0" standalone="no"?>
<!DOCTYPE svg PUBLIC "-//W3C//DTD SVG 20010904//EN"
 "http://www.w3.org/TR/2001/REC-SVG-20010904/DTD/svg10.dtd">
<svg version="1.0" xmlns="http://www.w3.org/2000/svg"
 width="1163.000000pt" height="1163.000000pt" viewBox="0 0 1163.000000 1163.000000"
 preserveAspectRatio="xMidYMid meet">
<metadata>
Created by potrace 1.14, written by Peter Selinger 2001-2017
</metadata>
<g transform="translate(0.000000,1163.000000) scale(0.100000,-0.100000)"
fill="#000000" stroke="none">
<path d="M6700 11394 c-167 -32 -181 -33 -353 -23 -265 17 -605 2 -742 -33
-57 -14 -196 -37 -295 -48 -206 -23 -418 -84 -655 -190 -71 -32 -146 -61 -165
-65 -19 -4 -55 -18 -80 -30 -25 -12 -56 -26 -70 -30 -14 -4 -38 -13 -55 -20
-16 -8 -64 -28 -105 -45 -41 -18 -102 -45 -135 -60 -33 -16 -73 -32 -90 -36
-32 -7 -107 -42 -115 -54 -9 -12 -115 -67 -142 -74 -15 -3 -34 -13 -43 -22
-27 -27 -136 -108 -182 -134 -24 -14 -76 -55 -116 -91 -39 -36 -91 -78 -114
-93 -23 -15 -44 -34 -47 -41 -3 -8 -29 -30 -59 -50 -89 -59 -399 -409 -472
-534 -19 -31 -52 -76 -74 -101 -22 -25 -57 -76 -77 -115 -20 -38 -45 -81 -55
-95 -35 -52 -218 -423 -228 -463 -5 -23 -30 -103 -54 -177 -25 -74 -55 -180
-67 -235 -12 -55 -26 -118 -31 -140 -6 -22 -19 -83 -30 -135 -11 -52 -31 -128
-45 -169 -14 -41 -32 -126 -39 -191 -8 -64 -19 -128 -24 -144 -6 -15 -11 -42
-11 -61 0 -19 -5 -46 -10 -61 -6 -14 -17 -88 -25 -163 -8 -75 -22 -161 -30
-191 -36 -135 -48 -294 -41 -570 11 -433 23 -582 66 -831 6 -30 10 -84 10
-118 0 -35 7 -84 15 -110 8 -25 19 -100 25 -166 6 -66 22 -162 36 -212 13 -51
24 -110 25 -130 0 -47 21 -141 36 -168 11 -19 43 -144 58 -225 3 -19 20 -74
36 -122 16 -47 29 -92 29 -99 0 -8 11 -43 24 -79 13 -36 29 -81 36 -100 44
-125 76 -206 114 -285 24 -49 54 -115 66 -145 23 -60 24 -62 73 -170 19 -41
37 -86 41 -100 4 -14 20 -52 36 -85 16 -33 36 -85 46 -115 9 -30 20 -59 24
-65 6 -9 89 -162 111 -205 22 -45 77 -168 84 -189 4 -13 35 -71 68 -129 33
-58 75 -145 93 -194 18 -48 44 -107 58 -130 13 -24 34 -72 46 -108 11 -36 28
-81 37 -100 22 -47 34 -179 37 -385 l1 -170 -42 -80 c-41 -80 -42 -82 -36
-157 5 -69 4 -79 -18 -110 -13 -18 -34 -54 -46 -79 -17 -38 -28 -49 -60 -59
-65 -21 -236 -102 -271 -128 -44 -33 -62 -71 -62 -128 0 -25 -7 -74 -16 -108
-9 -36 -14 -82 -11 -111 3 -27 1 -123 -4 -212 -7 -144 -6 -168 10 -220 21 -66
15 -106 -21 -132 -32 -23 -29 -20 -81 -96 -26 -38 -59 -85 -73 -104 -13 -19
-24 -38 -24 -42 0 -5 60 -9 133 -9 l132 0 38 80 c21 44 42 82 47 85 6 4 10 15
10 26 0 35 71 117 112 129 20 6 45 20 55 33 10 12 36 31 57 42 22 11 48 25 59
30 16 9 18 19 15 81 -3 60 -7 75 -30 100 -14 16 -43 48 -63 71 -25 29 -51 47
-79 54 -41 12 -71 38 -107 94 -14 22 -19 48 -19 98 0 95 17 130 80 164 29 15
66 36 83 46 27 15 48 17 137 12 69 -4 121 -13 152 -26 26 -10 82 -24 125 -29
95 -13 179 -36 189 -52 4 -6 9 -39 12 -72 2 -34 12 -86 22 -116 22 -68 41
-188 34 -216 -8 -31 -45 -44 -122 -44 -51 0 -73 -5 -92 -20 -14 -11 -29 -20
-35 -20 -14 0 -68 -53 -102 -98 -15 -20 -31 -39 -34 -42 -3 -3 -12 -36 -19
-75 -11 -56 -19 -75 -43 -95 -16 -14 -64 -59 -107 -100 -43 -41 -97 -90 -120
-108 l-42 -32 171 0 172 0 25 28 c13 15 32 41 41 57 8 17 30 46 47 65 17 19
48 69 69 112 21 42 46 83 55 91 9 8 70 29 136 46 131 35 147 34 235 -16 107
-61 221 -113 283 -127 85 -20 127 -37 181 -75 23 -16 61 -35 84 -41 23 -6 45
-15 48 -20 3 -6 13 -10 22 -10 8 0 27 -9 43 -20 15 -11 57 -35 94 -55 l66 -35
306 0 c314 0 336 3 253 37 -38 15 -39 16 -23 34 12 13 31 19 61 19 24 0 56 6
71 14 15 8 46 17 67 21 22 4 61 14 86 22 25 9 57 13 70 10 24 -6 95 -63 156
-124 l32 -33 269 0 269 0 -5 30 c-4 31 20 80 40 80 6 0 27 12 47 27 20 15 67
43 106 62 l70 34 60 -32 c34 -17 67 -31 74 -31 22 0 155 -50 171 -65 31 -27
131 -75 158 -75 15 0 40 -7 56 -15 25 -13 247 -15 1793 -15 l1766 0 -7 49 c-4
27 -15 75 -26 107 -11 31 -20 79 -20 105 0 36 -9 65 -34 111 -18 35 -39 84
-45 111 -6 26 -24 75 -40 110 -15 34 -38 89 -51 122 -48 126 -94 234 -141 329
-27 54 -49 107 -49 119 0 11 -7 29 -17 39 -17 19 -47 94 -64 162 -5 21 -16 51
-24 67 -8 15 -15 37 -15 47 0 11 -6 25 -14 31 -8 7 -17 28 -21 49 -3 20 -17
60 -31 89 -13 28 -24 65 -24 81 0 44 -41 276 -50 282 -23 16 -34 68 -41 190
-4 74 -13 187 -20 251 -11 102 -10 136 5 280 10 90 25 195 32 232 8 38 14 86
14 109 0 22 7 67 14 101 8 34 24 112 36 172 26 139 66 277 96 335 12 25 35 78
49 118 15 40 35 88 45 105 21 35 43 94 65 167 7 25 27 82 43 127 31 82 45 169
43 255 -1 33 11 79 39 154 22 59 45 113 51 121 6 7 9 25 6 40 -3 18 7 53 29
104 19 42 34 86 34 96 0 10 9 37 20 61 11 24 24 82 30 130 6 48 15 106 21 130
5 23 9 51 9 63 0 11 7 33 15 48 7 15 28 100 45 187 39 201 48 249 60 299 5 22
9 69 10 103 0 35 6 78 14 95 8 18 17 59 20 92 13 159 33 302 44 323 11 19 23
135 36 357 2 33 9 114 16 180 9 78 13 258 14 515 0 345 -3 400 -17 439 -9 24
-17 64 -17 89 0 25 -5 59 -10 76 -22 66 -79 233 -94 271 -8 22 -15 53 -16 68
0 16 -9 41 -20 56 -10 15 -36 77 -56 137 -20 60 -47 125 -58 144 -26 41 -48
95 -71 167 -9 28 -24 62 -34 75 -10 13 -22 34 -26 48 -16 50 -76 168 -100 196
-14 16 -28 43 -31 61 -3 17 -19 44 -35 59 -16 15 -29 34 -29 42 0 11 -58 99
-117 177 -46 60 -63 86 -81 121 -12 23 -44 61 -71 85 -28 24 -89 89 -137 144
-111 129 -322 345 -399 409 -33 28 -78 67 -100 87 -71 66 -221 171 -301 212
-27 14 -74 41 -104 61 -30 20 -84 50 -120 67 -36 16 -73 35 -84 40 -10 6 -43
17 -73 25 -30 8 -68 22 -86 31 -29 16 -52 23 -170 54 -47 12 -157 61 -217 97
-53 32 -128 62 -153 62 -9 0 -46 13 -80 28 -34 16 -76 32 -92 36 -17 4 -66 17
-110 30 -150 44 -380 95 -505 112 -69 9 -156 23 -195 32 -96 21 -225 24 -315
6z m-3270 -1179 c0 -28 -7 -30 -32 -11 -26 19 -22 36 7 36 20 0 25 -5 25 -25z
m-173 -101 c-3 -3 -12 -4 -19 -1 -8 3 -5 6 6 6 11 1 17 -2 13 -5z m0 -30 c-3
-3 -12 -4 -19 -1 -8 3 -5 6 6 6 11 1 17 -2 13 -5z m674 -41 c-9 -16 -10 -14
-11 12 0 21 3 26 11 18 8 -8 8 -16 0 -30z m-781 -16 c-14 -8 -27 -12 -30 -10
-7 6 23 23 40 23 8 0 4 -6 -10 -13z m-102 -129 c-4 -27 -28 -36 -28 -10 0 20
8 32 22 32 5 0 8 -10 6 -22z m-24 -59 c-3 -5 -14 -9 -26 -9 -17 0 -18 3 -8 14
12 15 44 10 34 -5z m626 -259 c0 -5 -9 -10 -21 -10 -11 0 -17 5 -14 10 3 6 13
10 21 10 8 0 14 -4 14 -10z m-470 -62 c0 -12 -38 -10 -45 2 -12 19 5 30 25 17
11 -6 20 -15 20 -19z m154 -57 c-6 -8 -24 12 -24 28 0 31 15 34 21 4 3 -15 4
-30 3 -32z m-103 -871 c10 -84 27 -208 38 -280 5 -36 12 -91 15 -123 3 -32 10
-73 15 -90 17 -57 28 -136 20 -149 -6 -10 -20 -10 -66 1 -103 23 -112 24 -139
7 -69 -46 -39 -116 66 -155 19 -7 59 -24 87 -37 29 -13 64 -26 78 -30 36 -9
56 -44 61 -106 2 -29 7 -63 9 -76 10 -43 -22 -40 -165 15 -36 14 -76 36 -91
49 -14 13 -37 24 -52 24 -33 0 -136 41 -177 70 -25 18 -30 28 -30 64 0 47 26
130 65 210 14 28 41 106 60 174 19 68 48 156 64 195 16 40 35 90 43 112 7 22
16 43 21 46 4 3 12 31 17 62 11 68 16 79 38 75 12 -2 19 -18 23 -58z m2638
-487 c7 -16 19 -62 26 -103 13 -75 47 -188 66 -224 6 -10 20 -50 31 -90 62
-222 89 -306 123 -386 13 -30 27 -68 30 -85 3 -16 7 -40 10 -52 5 -31 -23 -38
-82 -19 -26 9 -88 27 -138 42 -49 14 -100 32 -112 40 -12 7 -39 18 -60 23 -21
5 -72 19 -113 30 -41 12 -104 26 -140 32 -118 21 -210 51 -210 70 0 9 7 22 16
29 19 17 98 120 115 151 7 13 43 57 81 98 37 41 68 79 68 84 0 6 15 28 33 51
34 43 114 163 137 206 21 39 90 130 99 130 4 0 13 -12 20 -27z m-627 -899 c35
-9 96 -31 137 -50 41 -19 81 -34 90 -34 9 0 33 -9 52 -19 20 -11 65 -25 100
-31 35 -6 93 -20 129 -31 36 -10 103 -23 150 -29 122 -14 279 -49 308 -68 42
-28 114 -210 95 -241 -13 -19 -66 -17 -133 6 -25 8 -56 15 -70 15 -14 0 -43 8
-65 18 -22 10 -62 21 -90 25 -27 4 -61 13 -75 20 -49 25 -106 45 -155 54 -28
5 -73 21 -100 34 -28 14 -88 32 -135 41 -99 20 -207 51 -268 77 -27 12 -66 19
-105 19 -55 0 -70 -5 -117 -35 -60 -39 -59 -38 -80 -25 -12 7 -12 13 -1 33 18
34 199 217 225 227 30 12 37 12 108 -6z m-2541 -90 c20 -24 12 -335 -13 -509
-7 -44 -13 -111 -14 -150 -1 -38 -5 -142 -8 -230 -13 -327 -4 -405 59 -500 50
-77 86 -97 219 -123 54 -11 143 5 199 35 44 24 129 118 157 173 30 59 76 185
105 287 13 45 26 87 30 92 3 6 10 36 15 66 5 31 16 70 25 87 8 17 15 50 15 72
0 23 7 82 15 131 9 50 17 151 19 225 5 149 9 170 36 170 22 0 45 -42 65 -120
8 -31 28 -89 45 -129 16 -41 30 -77 30 -82 0 -5 28 -55 62 -111 62 -102 98
-189 98 -235 0 -27 50 -63 88 -63 27 0 67 25 78 48 9 21 22 150 39 387 13 199
32 204 80 20 13 -52 36 -112 50 -133 14 -20 25 -44 25 -52 0 -44 112 -235 180
-308 35 -37 55 -25 53 32 -1 46 0 49 43 79 25 18 51 45 59 62 7 16 29 65 49
108 20 44 36 85 36 92 0 22 38 104 59 127 20 20 21 20 26 2 14 -46 33 -68 75
-90 50 -25 125 -52 185 -66 114 -28 115 -28 122 -56 3 -14 1 -56 -6 -92 -7
-36 -12 -78 -12 -93 1 -15 -3 -36 -9 -46 -5 -11 -12 -77 -15 -148 -2 -70 -10
-227 -16 -348 -20 -377 1 -551 75 -612 19 -16 37 -42 40 -59 11 -49 80 -134
149 -181 37 -26 98 -55 152 -72 203 -66 291 -62 471 24 75 35 105 57 170 123
45 45 92 103 107 134 15 29 37 69 49 88 28 45 64 121 90 189 12 30 30 70 41
89 40 68 117 323 117 387 0 30 21 65 38 65 4 0 16 -6 27 -14 11 -7 39 -14 62
-14 54 -1 53 -1 101 -70 75 -110 75 -110 57 -220 -8 -53 -18 -110 -21 -127 -3
-16 -8 -57 -10 -90 -5 -77 -22 -158 -40 -193 -8 -15 -14 -47 -14 -72 0 -25 -9
-63 -20 -85 -11 -22 -19 -53 -20 -68 0 -15 -7 -44 -15 -64 -9 -21 -18 -64 -21
-98 -8 -89 -43 -303 -59 -360 -8 -27 -21 -84 -30 -125 -8 -41 -19 -88 -24
-105 -6 -16 -15 -64 -19 -105 -12 -97 -47 -174 -82 -178 -14 -2 -47 -10 -73
-18 -26 -9 -71 -19 -100 -24 -29 -5 -72 -15 -97 -23 -83 -28 -247 -46 -375
-41 -174 7 -161 0 -161 86 1 60 -4 83 -26 130 -29 58 -90 120 -143 142 -16 7
-50 30 -73 50 -24 20 -48 36 -53 36 -5 0 -32 11 -61 25 -29 14 -73 31 -98 39
-25 8 -74 27 -110 41 -35 15 -82 29 -105 30 -22 1 -74 7 -115 13 -91 12 -252
1 -330 -23 -30 -9 -71 -21 -90 -25 -19 -4 -89 -35 -155 -68 -104 -53 -130 -71
-198 -140 l-78 -80 -112 40 c-62 22 -124 43 -139 48 -15 4 -48 23 -74 41 -26
18 -85 45 -130 60 -46 15 -116 47 -156 71 -40 24 -98 55 -128 68 -30 13 -62
29 -70 36 -8 6 -31 19 -50 29 -19 9 -46 28 -60 41 -14 12 -48 35 -76 51 -42
22 -159 122 -273 233 -28 27 -87 104 -115 150 -15 25 -40 63 -56 85 -16 22
-29 47 -30 56 0 9 -7 22 -15 29 -37 31 -105 213 -105 281 0 40 28 134 61 205
10 22 19 46 19 52 0 7 9 31 19 55 11 23 32 78 47 122 14 44 30 85 33 90 17 24
35 101 35 153 1 32 -2 224 -6 427 -8 391 -4 451 32 555 13 36 25 71 26 78 5
17 29 15 45 -4z m579 -534 c27 -53 30 -67 24 -111 -22 -162 -198 -133 -182 31
7 65 59 140 99 140 25 0 32 -7 59 -60z m2562 -581 c23 -13 48 -67 48 -107 0
-16 -9 -59 -21 -95 -20 -64 -22 -67 -62 -78 -51 -14 -110 2 -132 35 -8 12 -17
42 -21 67 -4 36 0 55 25 106 17 34 38 66 48 72 24 14 89 14 115 0z m3105 -741
c15 -18 42 -46 58 -62 47 -48 58 -84 57 -201 -1 -93 -4 -108 -27 -144 -14 -22
-25 -48 -25 -56 0 -23 -14 -47 -51 -86 -18 -19 -39 -45 -48 -59 -9 -14 -38
-46 -65 -70 -27 -25 -55 -59 -62 -76 -13 -30 -124 -124 -146 -124 -12 0 -1 72
17 115 30 70 76 229 100 345 15 69 35 153 46 187 11 34 24 97 28 140 5 44 13
89 20 101 18 34 63 29 98 -10z m-3977 -1038 c25 -10 59 -21 76 -24 42 -7 147
-55 157 -72 4 -8 15 -14 23 -14 19 0 98 -54 116 -78 7 -10 25 -26 40 -36 27
-18 58 -88 58 -134 l0 -25 -152 6 c-84 3 -180 12 -213 20 -33 9 -94 20 -135
27 -41 6 -89 15 -105 20 -17 5 -104 12 -193 15 -89 2 -171 9 -181 15 -11 5
-66 14 -123 19 -110 10 -179 25 -216 49 l-23 15 27 29 c16 15 43 33 61 40 18
7 33 15 33 18 0 10 193 97 243 109 26 6 71 12 100 12 28 1 66 5 82 10 52 14
273 0 325 -21z m1366 -689 c7 0 14 -8 18 -16 10 -27 -32 -220 -76 -350 -6 -16
-17 -59 -25 -94 -7 -35 -27 -98 -43 -140 -17 -42 -30 -82 -30 -90 0 -21 -51
-104 -58 -96 -9 9 -77 345 -87 430 -3 21 -12 61 -21 88 -9 27 -17 72 -18 100
-1 51 -1 51 44 74 25 12 56 27 70 33 26 10 49 24 86 50 17 13 78 18 140 11z
m-1990 -98 c19 -21 48 -58 64 -83 16 -25 42 -58 58 -75 31 -32 85 -109 95
-136 8 -23 -18 -56 -61 -78 -20 -11 -64 -33 -97 -50 -98 -52 -100 -50 -102
109 -1 74 -7 174 -13 222 -12 86 -8 128 11 128 6 0 26 -17 45 -37z m1178 -99
c3 -9 6 -33 6 -54 0 -21 5 -51 11 -67 6 -15 22 -93 35 -173 14 -80 29 -160 35
-178 17 -53 4 -85 -44 -106 -23 -10 -44 -21 -47 -25 -13 -16 -101 -81 -157
-115 -35 -21 -63 -41 -63 -45 0 -8 -74 -61 -84 -61 -3 0 -11 7 -19 14 -11 11
-13 25 -6 58 4 24 11 99 15 168 l7 125 43 67 c24 37 44 71 44 75 0 10 108 189
151 250 16 23 29 48 29 55 0 30 34 39 44 12z m-906 -449 c2 -11 14 -31 27 -45
16 -17 27 -46 34 -90 24 -144 6 -281 -44 -343 -49 -62 -56 -72 -71 -102 -9
-16 -24 -57 -36 -90 -11 -32 -35 -89 -53 -125 -19 -36 -44 -105 -56 -155 -12
-49 -30 -107 -40 -127 -11 -21 -19 -46 -19 -57 0 -11 -8 -48 -17 -83 -11 -43
-16 -99 -15 -180 l1 -116 -55 -109 c-31 -59 -64 -117 -75 -129 -10 -11 -19
-28 -19 -37 0 -9 -4 -18 -9 -22 -5 -3 -19 -31 -31 -63 -11 -31 -27 -70 -35
-87 -7 -16 -19 -45 -25 -62 -7 -18 -16 -33 -20 -33 -4 0 -15 -28 -25 -62 -10
-35 -26 -87 -36 -116 -11 -29 -19 -68 -19 -87 0 -32 -3 -35 -29 -35 -47 0
-141 48 -153 79 -8 22 -22 536 -18 704 1 53 52 173 92 217 27 29 150 198 221
304 39 57 59 76 103 99 80 41 83 45 214 422 35 103 72 265 68 300 -4 39 -30
53 -59 33 -25 -16 -93 -164 -124 -269 -20 -71 -37 -94 -59 -86 -15 6 -17 23
-14 165 l3 158 34 53 c28 43 46 59 97 83 35 17 69 36 75 44 6 8 19 14 28 14 9
1 41 14 71 30 62 33 83 34 88 5z m-711 -335 c43 -88 103 -217 103 -222 0 -4
13 -35 29 -70 16 -35 36 -86 45 -115 l17 -52 -68 -72 c-111 -117 -147 -153
-180 -179 -16 -14 -38 -41 -48 -60 -10 -19 -38 -59 -62 -88 -23 -30 -43 -60
-43 -67 0 -8 -9 -17 -20 -20 -23 -7 -124 20 -154 41 -11 8 -27 14 -36 14 -32
0 -88 21 -94 35 -3 8 7 29 22 48 62 71 72 98 67 175 -3 50 0 80 10 99 8 16 15
40 15 55 0 15 6 47 14 70 8 24 17 95 21 158 3 63 9 127 12 143 12 60 196 139
313 133 15 -1 29 -10 37 -26z m3559 -436 c16 -20 71 -78 122 -130 50 -52 92
-98 92 -103 0 -5 13 -14 29 -21 61 -25 72 -49 80 -162 3 -57 5 -182 3 -279
l-3 -177 -42 -10 c-23 -6 -89 -13 -147 -17 -58 -3 -139 -13 -180 -20 -41 -8
-113 -17 -160 -20 -288 -20 -441 -73 -508 -175 -42 -64 -161 -192 -173 -185
-14 9 3 148 21 175 9 14 20 38 24 53 4 16 18 47 32 69 15 23 34 64 44 93 10
29 33 74 52 101 30 43 90 140 140 226 48 84 118 168 139 168 4 0 37 24 72 54
46 39 70 69 86 105 15 37 30 54 55 66 32 15 56 50 56 80 0 8 14 29 31 47 17
18 42 48 56 66 14 17 31 32 37 32 7 0 26 -16 42 -36z m-1734 -25 c53 -21 74
-21 194 -3 36 5 43 3 48 -13 3 -10 1 -34 -4 -53 -6 -19 -13 -68 -15 -107 -2
-40 -11 -96 -19 -125 -15 -52 -23 -119 -31 -263 -10 -165 -23 -191 -85 -180
-19 4 -44 12 -55 19 -48 29 -322 88 -417 90 -35 1 -53 -4 -67 -19 -29 -30 -98
-164 -126 -247 -13 -40 -36 -107 -50 -148 -39 -113 -65 -215 -71 -278 -5 -49
-3 -62 18 -92 31 -45 70 -60 106 -39 26 14 27 18 28 99 1 90 25 255 44 305 19
49 37 62 78 59 20 -2 51 -8 67 -14 93 -33 247 -80 295 -89 208 -41 249 -58
263 -108 12 -40 2 -82 -21 -90 -9 -4 -49 -26 -88 -49 -40 -23 -98 -52 -130
-64 -32 -12 -79 -32 -104 -45 -25 -13 -69 -33 -99 -45 -66 -27 -105 -54 -119
-84 -15 -34 10 -82 52 -103 34 -16 38 -15 108 6 40 13 91 27 113 33 22 5 60
22 85 37 26 16 57 32 71 36 13 4 35 15 49 25 41 29 112 60 136 60 16 0 37 -18
69 -60 26 -34 57 -63 71 -66 13 -4 40 -25 58 -48 30 -37 33 -46 31 -101 -1
-33 -3 -63 -4 -67 -2 -16 -31 -7 -57 17 -15 14 -36 25 -48 25 -12 0 -57 16
-101 35 -50 22 -96 35 -123 35 -23 0 -60 9 -82 20 -54 28 -109 26 -155 -6 -36
-24 -53 -28 -225 -53 -30 -4 -68 -13 -84 -20 -16 -6 -37 -9 -47 -6 -10 3 -31
0 -46 -8 -15 -7 -59 -19 -98 -27 -38 -7 -75 -16 -81 -21 -13 -10 -192 -59
-218 -59 -13 0 -16 4 -11 18 27 62 38 323 33 772 0 63 0 166 1 229 l1 114 58
56 c32 31 66 70 76 86 10 17 32 37 49 45 17 8 35 24 41 34 6 11 21 29 33 40
11 12 38 46 58 76 20 30 56 75 79 100 107 113 156 179 156 210 0 65 31 87 165
121 91 22 86 22 147 -2z m2242 -1041 c14 -6 28 -19 31 -29 8 -23 -28 -92 -68
-133 -58 -57 -95 -103 -112 -137 -10 -18 -23 -39 -31 -46 -7 -7 -16 -35 -20
-61 -14 -101 -54 -143 -118 -123 -75 25 -663 67 -826 60 -126 -6 -185 -4 -185
7 0 6 12 26 27 45 46 59 115 164 149 228 37 68 31 66 189 96 47 9 108 23 135
30 28 8 113 19 190 25 77 6 190 16 250 21 61 5 164 14 230 18 66 4 123 9 127
10 4 0 18 -4 32 -11z"/>
<path d="M1836 3412 c-10 -2 -37 -18 -61 -35 -23 -18 -55 -40 -71 -49 -16 -10
-47 -31 -69 -48 -22 -16 -47 -30 -55 -30 -17 -1 -79 -49 -130 -102 -20 -20
-57 -46 -83 -57 -27 -12 -63 -32 -81 -46 -18 -14 -36 -25 -40 -25 -15 0 -146
-91 -154 -108 -5 -9 -12 -32 -15 -50 -8 -39 21 -105 54 -122 26 -14 115 -6
137 12 9 8 28 20 42 26 67 33 146 92 159 119 13 24 95 93 112 93 3 0 32 25 64
56 33 31 76 66 95 79 19 12 49 41 65 64 17 22 34 41 38 41 30 1 81 99 72 139
-7 31 -43 51 -79 43z"/>
<path d="M480 3310 c-19 -5 -45 -6 -56 -4 -15 4 -41 -7 -80 -34 -33 -22 -81
-46 -107 -55 -47 -16 -96 -59 -146 -128 -14 -19 -33 -40 -44 -48 -44 -31 -47
-61 -47 -434 l0 -353 45 -74 c24 -41 45 -81 45 -87 0 -7 12 -20 26 -29 14 -10
39 -38 57 -63 34 -50 130 -151 143 -151 4 0 17 -8 28 -18 36 -32 211 -84 296
-87 25 -1 78 -7 119 -13 40 -7 85 -9 100 -6 119 28 306 93 321 113 10 13 110
81 120 81 10 0 107 87 149 134 14 17 43 47 64 68 20 21 37 45 37 53 0 8 9 20
21 29 42 29 51 52 38 96 -14 45 -71 110 -98 110 -9 0 -31 -10 -47 -22 -35 -27
-164 -166 -164 -178 0 -4 -14 -13 -30 -20 -17 -7 -36 -20 -43 -30 -25 -35
-119 -93 -199 -122 -46 -17 -105 -39 -133 -49 -65 -24 -242 -26 -305 -4 -48
17 -154 78 -188 109 -40 35 -128 158 -166 231 -43 81 -60 190 -56 358 2 91 4
104 38 172 29 58 54 89 115 144 42 39 83 71 90 71 7 0 30 9 52 20 22 11 51 20
66 20 15 0 44 6 65 13 32 11 58 11 144 1 153 -18 187 -18 199 4 16 30 -17 82
-74 119 -27 18 -58 33 -67 33 -10 0 -41 9 -70 20 -56 21 -188 26 -258 10z"/>
</g>
</svg>
